<svg width="800" height="500" xmlns="http://www.w3.org/2000/svg">
  <rect x="20" y="20" width="760" height="460" rx="20" fill="#f5f5f5" stroke="#333" stroke-width="2"/>
  <!-- Header -->
  <rect x="40" y="30" width="720" height="60" rx="10" fill="#008751"/>
  <text x="400" y="65" font-size="28" font-family="Arial" fill="#fff" text-anchor="middle">Site Logo &amp; Site Name (H1)</text>
  <!-- Shopping Cart Icon -->
  <rect x="700" y="40" width="40" height="40" rx="8" fill="#fff" stroke="#008751" stroke-width="2"/>
  <circle cx="720" cy="60" r="10" fill="#008751"/>
  <text x="720" y="65" font-size="18" font-family="Arial" fill="#fff" text-anchor="middle">🛒</text>
  <!-- Navigation -->
  <rect x="40" y="100" width="720" height="40" rx="8" fill="#d0ffd0"/>
  <text x="400" y="125" font-size="18" font-family="Arial" fill="#333" text-anchor="middle">Navigation: Home | About | Join</text>
  <!-- Left Sidebar -->
  <rect x="50" y="160" width="200" height="220" rx="8" fill="#e0e0e0"/>
  <text x="150" y="190" font-size="16" font-family="Arial" fill="#333" text-anchor="middle">Left Side Nav</text>
  <!-- Main Content Boxes -->
  <rect x="270" y="160" width="220" height="60" rx="8" fill="#fff" stroke="#008751" stroke-width="1"/>
  <text x="380" y="195" font-size="15" font-family="Arial" fill="#333" text-anchor="middle">Site Purpose</text>
  <rect x="270" y="230" width="220" height="60" rx="8" fill="#fff" stroke="#008751" stroke-width="1"/>
  <text x="380" y="265" font-size="15" font-family="Arial" fill="#333" text-anchor="middle">Scenarios</text>
  <rect x="270" y="300" width="220" height="40" rx="8" fill="#008751"/>
  <text x="380" y="325" font-size="15" font-family="Arial" fill="#fff" text-anchor="middle">Color Scheme</text>
  <rect x="270" y="350" width="220" height="40" rx="8" fill="#e0e0e0"/>
  <text x="380" y="375" font-size="15" font-family="Arial" fill="#333" text-anchor="middle">Typography</text>
  <!-- Product Gallery -->
  <rect x="510" y="160" width="220" height="100" rx="8" fill="#fff" stroke="#008751" stroke-width="1"/>
  <text x="620" y="185" font-size="15" font-family="Arial" fill="#333" text-anchor="middle">Product Gallery</text>
  <rect x="530" y="200" width="40" height="40" rx="6" fill="#e0e0e0" stroke="#008751" stroke-width="1"/>
  <rect x="580" y="200" width="40" height="40" rx="6" fill="#e0e0e0" stroke="#008751" stroke-width="1"/>
  <rect x="630" y="200" width="40" height="40" rx="6" fill="#e0e0e0" stroke="#008751" stroke-width="1"/>
  <rect x="680" y="200" width="40" height="40" rx="6" fill="#e0e0e0" stroke="#008751" stroke-width="1"/>
  <!-- Footer -->
  <rect x="40" y="420" width="720" height="40" rx="8" fill="#333"/>
  <text x="400" y="445" font-size="16" font-family="Arial" fill="#fff" text-anchor="middle">Footer (copyright)</text>
</svg> 